<mxfile host="Electron" modified="2023-09-23T19:10:55.231Z" agent="Mozilla/5.0 (Windows NT 10.0; Win64; x64) AppleWebKit/537.36 (KHTML, like Gecko) draw.io/21.7.5 Chrome/114.0.5735.289 Electron/25.8.1 Safari/537.36" etag="H6Yr0lzV8KVWtUoI3ePz" version="21.7.5" type="device">
  <diagram name="Page-1" id="MlIpaG3ZTOWsGcFuq0ky">
    <mxGraphModel dx="1595" dy="697" grid="0" gridSize="10" guides="1" tooltips="1" connect="1" arrows="1" fold="1" page="0" pageScale="1" pageWidth="850" pageHeight="1100" math="0" shadow="0">
      <root>
        <mxCell id="0" />
        <mxCell id="1" parent="0" />
        <mxCell id="dqj-ABIYMCC2nvdNBQTe-2" value="" style="fillColor=none;strokeColor=#5A6C86;dashed=1;verticalAlign=top;fontStyle=0;fontColor=#5A6C86;whiteSpace=wrap;html=1;" vertex="1" parent="1">
          <mxGeometry x="120" y="264" width="120" height="310" as="geometry" />
        </mxCell>
        <mxCell id="hfroEEJJfjB4oBTXA3vB-14" value="" style="fillColor=none;strokeColor=#5A6C86;dashed=1;verticalAlign=top;fontStyle=0;fontColor=#5A6C86;whiteSpace=wrap;html=1;" parent="1" vertex="1">
          <mxGeometry x="-60" y="264" width="120" height="310" as="geometry" />
        </mxCell>
        <mxCell id="hfroEEJJfjB4oBTXA3vB-1" value="CloudFront" style="sketch=0;points=[[0,0,0],[0.25,0,0],[0.5,0,0],[0.75,0,0],[1,0,0],[0,1,0],[0.25,1,0],[0.5,1,0],[0.75,1,0],[1,1,0],[0,0.25,0],[0,0.5,0],[0,0.75,0],[1,0.25,0],[1,0.5,0],[1,0.75,0]];outlineConnect=0;fontColor=#FFFFFF;fillColor=#8C4FFF;strokeColor=#ffffff;dashed=0;verticalLabelPosition=bottom;verticalAlign=top;align=center;html=1;fontSize=15;fontStyle=1;aspect=fixed;shape=mxgraph.aws4.resourceIcon;resIcon=mxgraph.aws4.cloudfront;" parent="1" vertex="1">
          <mxGeometry x="141" y="380" width="78" height="78" as="geometry" />
        </mxCell>
        <mxCell id="hfroEEJJfjB4oBTXA3vB-2" value="WAF" style="sketch=0;points=[[0,0,0],[0.25,0,0],[0.5,0,0],[0.75,0,0],[1,0,0],[0,1,0],[0.25,1,0],[0.5,1,0],[0.75,1,0],[1,1,0],[0,0.25,0],[0,0.5,0],[0,0.75,0],[1,0.25,0],[1,0.5,0],[1,0.75,0]];outlineConnect=0;fontColor=#FFFFFF;fillColor=#DD344C;strokeColor=#ffffff;dashed=0;verticalLabelPosition=bottom;verticalAlign=top;align=center;html=1;fontSize=15;fontStyle=1;aspect=fixed;shape=mxgraph.aws4.resourceIcon;resIcon=mxgraph.aws4.waf;" parent="1" vertex="1">
          <mxGeometry x="-39" y="310" width="78" height="78" as="geometry" />
        </mxCell>
        <mxCell id="hfroEEJJfjB4oBTXA3vB-3" value="ELB" style="sketch=0;points=[[0,0,0],[0.25,0,0],[0.5,0,0],[0.75,0,0],[1,0,0],[0,1,0],[0.25,1,0],[0.5,1,0],[0.75,1,0],[1,1,0],[0,0.25,0],[0,0.5,0],[0,0.75,0],[1,0.25,0],[1,0.5,0],[1,0.75,0]];outlineConnect=0;fontColor=#FFFFFF;fillColor=#ED7100;strokeColor=#ffffff;dashed=0;verticalLabelPosition=bottom;verticalAlign=top;align=center;html=1;fontSize=15;fontStyle=1;aspect=fixed;shape=mxgraph.aws4.resourceIcon;resIcon=mxgraph.aws4.elastic_load_balancing;" parent="1" vertex="1">
          <mxGeometry x="530" y="470" width="78" height="78" as="geometry" />
        </mxCell>
        <mxCell id="hfroEEJJfjB4oBTXA3vB-4" value="Bucket" style="sketch=0;points=[[0,0,0],[0.25,0,0],[0.5,0,0],[0.75,0,0],[1,0,0],[0,1,0],[0.25,1,0],[0.5,1,0],[0.75,1,0],[1,1,0],[0,0.25,0],[0,0.5,0],[0,0.75,0],[1,0.25,0],[1,0.5,0],[1,0.75,0]];outlineConnect=0;fontColor=#FFFFFF;fillColor=#7AA116;strokeColor=#ffffff;dashed=0;verticalLabelPosition=bottom;verticalAlign=top;align=center;html=1;fontSize=15;fontStyle=1;aspect=fixed;shape=mxgraph.aws4.resourceIcon;resIcon=mxgraph.aws4.s3;" parent="1" vertex="1">
          <mxGeometry x="530" y="294.5" width="78" height="78" as="geometry" />
        </mxCell>
        <mxCell id="hfroEEJJfjB4oBTXA3vB-5" value="OAI" style="sketch=0;outlineConnect=0;fontColor=#FFFFFF;gradientColor=none;fillColor=#7AA116;strokeColor=none;dashed=0;verticalLabelPosition=bottom;verticalAlign=top;align=center;html=1;fontSize=15;fontStyle=1;aspect=fixed;pointerEvents=1;shape=mxgraph.aws4.policy;" parent="1" vertex="1">
          <mxGeometry x="330" y="300" width="78" height="67" as="geometry" />
        </mxCell>
        <mxCell id="hfroEEJJfjB4oBTXA3vB-7" style="rounded=0;orthogonalLoop=1;jettySize=auto;html=1;strokeWidth=3;endArrow=block;endFill=1;" parent="1" source="hfroEEJJfjB4oBTXA3vB-1" target="hfroEEJJfjB4oBTXA3vB-5" edge="1">
          <mxGeometry relative="1" as="geometry">
            <mxPoint x="169" y="370" as="sourcePoint" />
            <mxPoint x="169" y="298" as="targetPoint" />
          </mxGeometry>
        </mxCell>
        <mxCell id="hfroEEJJfjB4oBTXA3vB-8" style="rounded=0;orthogonalLoop=1;jettySize=auto;html=1;strokeWidth=3;endArrow=block;endFill=1;" parent="1" source="hfroEEJJfjB4oBTXA3vB-5" target="hfroEEJJfjB4oBTXA3vB-4" edge="1">
          <mxGeometry relative="1" as="geometry">
            <mxPoint x="208" y="400" as="sourcePoint" />
            <mxPoint x="400" y="353" as="targetPoint" />
          </mxGeometry>
        </mxCell>
        <mxCell id="hfroEEJJfjB4oBTXA3vB-9" style="rounded=0;orthogonalLoop=1;jettySize=auto;html=1;strokeWidth=3;endArrow=block;endFill=1;" parent="1" source="hfroEEJJfjB4oBTXA3vB-1" target="hfroEEJJfjB4oBTXA3vB-10" edge="1">
          <mxGeometry relative="1" as="geometry">
            <mxPoint x="208" y="400" as="sourcePoint" />
            <mxPoint x="400" y="353" as="targetPoint" />
          </mxGeometry>
        </mxCell>
        <mxCell id="hfroEEJJfjB4oBTXA3vB-10" value="Custom Auth Header" style="rounded=0;whiteSpace=wrap;html=1;fontStyle=1;fontSize=15;" parent="1" vertex="1">
          <mxGeometry x="320" y="483" width="120" height="52" as="geometry" />
        </mxCell>
        <mxCell id="hfroEEJJfjB4oBTXA3vB-11" style="rounded=0;orthogonalLoop=1;jettySize=auto;html=1;strokeWidth=3;endArrow=block;endFill=1;" parent="1" source="hfroEEJJfjB4oBTXA3vB-10" target="hfroEEJJfjB4oBTXA3vB-3" edge="1">
          <mxGeometry relative="1" as="geometry">
            <mxPoint x="208" y="425" as="sourcePoint" />
            <mxPoint x="370" y="493" as="targetPoint" />
          </mxGeometry>
        </mxCell>
        <mxCell id="hfroEEJJfjB4oBTXA3vB-12" value="AWS Shield" style="sketch=0;points=[[0,0,0],[0.25,0,0],[0.5,0,0],[0.75,0,0],[1,0,0],[0,1,0],[0.25,1,0],[0.5,1,0],[0.75,1,0],[1,1,0],[0,0.25,0],[0,0.5,0],[0,0.75,0],[1,0.25,0],[1,0.5,0],[1,0.75,0]];outlineConnect=0;fontColor=#FFFFFF;fillColor=#DD344C;strokeColor=#ffffff;dashed=0;verticalLabelPosition=bottom;verticalAlign=top;align=center;html=1;fontSize=15;fontStyle=1;aspect=fixed;shape=mxgraph.aws4.resourceIcon;resIcon=mxgraph.aws4.shield;" parent="1" vertex="1">
          <mxGeometry x="-39" y="430" width="78" height="78" as="geometry" />
        </mxCell>
        <mxCell id="dqj-ABIYMCC2nvdNBQTe-1" value="" style="outlineConnect=0;dashed=0;verticalLabelPosition=bottom;verticalAlign=top;align=center;html=1;shape=mxgraph.aws3.internet;fillColor=#D2D3D3;gradientColor=none;" vertex="1" parent="1">
          <mxGeometry x="-190" y="388" width="60" height="60" as="geometry" />
        </mxCell>
        <mxCell id="dqj-ABIYMCC2nvdNBQTe-3" style="rounded=0;orthogonalLoop=1;jettySize=auto;html=1;strokeWidth=3;endArrow=block;endFill=1;" edge="1" parent="1" source="dqj-ABIYMCC2nvdNBQTe-1" target="hfroEEJJfjB4oBTXA3vB-14">
          <mxGeometry relative="1" as="geometry">
            <mxPoint x="208" y="417" as="sourcePoint" />
            <mxPoint x="400" y="356" as="targetPoint" />
          </mxGeometry>
        </mxCell>
        <mxCell id="dqj-ABIYMCC2nvdNBQTe-5" style="rounded=0;orthogonalLoop=1;jettySize=auto;html=1;strokeWidth=3;endArrow=block;endFill=1;" edge="1" parent="1" source="hfroEEJJfjB4oBTXA3vB-14" target="dqj-ABIYMCC2nvdNBQTe-2">
          <mxGeometry relative="1" as="geometry">
            <mxPoint x="-120" y="428" as="sourcePoint" />
            <mxPoint x="-50" y="429" as="targetPoint" />
          </mxGeometry>
        </mxCell>
      </root>
    </mxGraphModel>
  </diagram>
</mxfile>
